<svg xmlns="http://www.w3.org/2000/svg" xmlns:xlink="http://www.w3.org/1999/xlink" viewBox="0 0 1672 941" width="1672" height="941" preserveAspectRatio="xMidYMid slice" xmlns:c2pa="http://c2pa.org/manifest"><metadata><c2pa:manifest>AAAWgmp1bWIAAAAeanVtZGMycGEAEQAQgAAAqgA4m3EDYzJwYQAAABZcanVtYgAAAEdqdW1kYzJtYQARABCAAACqADibcQN1cm46YzJwYTo4ZTA3MzU1ZC0wMTM1LTQ0MTUtYjZlMC1lYzZiMDU2OTQ1NGUAAAADl2p1bWIAAAApanVtZGMyYXMAEQAQgAAAqgA4m3EDYzJwYS5hc3NlcnRpb25zAAAAALxqdW1iAAAARGp1bWRjYm9yABEAEIAAAKoAOJtxE2MycGEuaW5ncmVkaWVudC52MwAAAAAYYzJzaP+akIirpq3wxKEmEcx1+IMAAABwY2JvcqNpZGM6Zm9ybWF0bWltYWdlL3N2Zyt4bWxqaW5zdGFuY2VJRHgseG1wOmlpZDpmN2Y3MDQyYS00MTFhLTQ5ZjctOGZkMS1lZDhmOTIyZWY4ZmFscmVsYXRpb25zaGlwaHBhcmVudE9mAAAB4mp1bWIAAABBanVtZGNib3IAEQAQgAAAqgA4m3ETYzJwYS5hY3Rpb25zLnYyAAAAABhjMnNoVReuVh80iwczNmLElWEE2gAAAZljYm9yomdhY3Rpb25zgqJmYWN0aW9ua2MycGEub3BlbmVkanBhcmFtZXRlcnOha2luZ3JlZGllbnRzgaJjdXJseC1zZWxmI2p1bWJmPWMycGEuYXNzZXJ0aW9ucy9jMnBhLmluZ3JlZGllbnQudjNkaGFzaFggqVwuh/1o3QNzmgwcLUU9RNqF9Gi9qpf5ZqzJKSsST22kZmFjdGlvbngdY29tLmFudGhyb3BpYy5jbGF1ZGUucHJvdmlkZWRqcGFyYW1ldGVyc6F4H2NvbS5hbnRocm9waWMub3JpZ2luLWNvbmZpZGVuY2VndW5rbm93bmtkZXNjcmlwdGlvbnhmQ2xhdWRlIHByb3ZpZGVkIHRoaXMgZmlsZSBhdCB0aGUgcmVxdWVzdCBvZiBhIHVzZXIgYW5kIG1heSBoYXZlIGNyZWF0ZWQgb3IgbW9kaWZpZWQgdGhlIGZpbGUgY29udGVudHMubXNvZnR3YXJlQWdlbnShZG5hbWVmQ2xhdWRlcmFsbEFjdGlvbnNJbmNsdWRlZPUAAADIanVtYgAAAEBqdW1kY2JvcgARABCAAACqADibcRNjMnBhLmhhc2guZGF0YQAAAAAYYzJzaGlrUUwzlaZFbiGGwTJWCm0AAACAY2JvcqVjYWxnZnNoYTI1NmNwYWRNAAAAAAAAAAAAAAAAAGRoYXNoWCCIgC7NPDv1VTcR1DjrVsRCVb1KSbJTCjtgSVoI0ISWWGRuYW1lbmp1bWJmIG1hbmlmZXN0amV4Y2x1c2lvbnOBomVzdGFydBjoZmxlbmd0aBkeBAAAAj5qdW1iAAAAJ2p1bWRjMmNsABEAEIAAAKoAOJtxA2MycGEuY2xhaW0udjIAAAACD2Nib3KlY2FsZ2ZzaGEyNTZpc2lnbmF0dXJleE1zZWxmI2p1bWJmPS9jMnBhL3VybjpjMnBhOjhlMDczNTVkLTAxMzUtNDQxNS1iNmUwLWVjNmIwNTY5NDU0ZS9jMnBhLnNpZ25hdHVyZWppbnN0YW5jZUlEeCx4bXA6aWlkOmRhMTdjNGYxLTY2NWItNGNhOS1iODUwLThiOGUzYjYxMTY2MXJjcmVhdGVkX2Fzc2VydGlvbnODomN1cmx4LXNlbGYjanVtYmY9YzJwYS5hc3NlcnRpb25zL2MycGEuaW5ncmVkaWVudC52M2RoYXNoWCCpXC6H/WjdA3OaDBwtRT1E2oX0aL2ql/lmrMkpKxJPbaJjdXJseCpzZWxmI2p1bWJmPWMycGEuYXNzZXJ0aW9ucy9jMnBhLmFjdGlvbnMudjJkaGFzaFggx6HBA/s0EIzAly+uJe7Gm1Y1RgFRQtJUU2g0EIlWXDWiY3VybHgpc2VsZiNqdW1iZj1jMnBhLmFzc2VydGlvbnMvYzJwYS5oYXNoLmRhdGFkaGFzaFgg0bI6mERKsYR3sQ9jgiQN3wjClyAnaE++7/9ec8Jnd390Y2xhaW1fZ2VuZXJhdG9yX2luZm+jZG5hbWVvQW50aHJvcGljIEZpbGVzZ3ZlcnNpb25lMS4wLjBrc3BlY1ZlcnNpb25lMi40LjAAABA4anVtYgAAAChqdW1kYzJjcwARABCAAACqADibcQNjMnBhLnNpZ25hdHVyZQAAABAIY2JvctKEWQISogEmGCFZAgowggIGMIIBjaADAgECAhRA5aAK7sI50L64g/oGQgU9Z1UTADAKBggqhkjOPQQDAzBJMRcwFQYDVQQKEw5BbnRocm9waWMsIFBCQzEuMCwGA1UEAxMlQW50aHJvcGljIENvbnRlbnQgQ3JlZGVudGlhbHMgUm9vdCBDQTAeFw0yNjA4MDcxODQzNTZaFw0yODA4MDYxOTQzNTZaMEQxFzAVBgNVBAoTDkFudGhyb3BpYywgUEJDMSkwJwYDVQQDEyBBbnRocm9waWMgQ2xhdWRlIENvbnRlbnQgU2lnbmluZzBZMBMGByqGSM49AgEGCCqGSM49AwEHA0IABJh6CmvLUBgFFNU0vUKlOVtE6djd17L5SuwX0LemFisBM3dkd/3cyjxFA3Qo5S46fX0/ihY0VZ7mfb9KF703t5OjWDBWMA4GA1UdDwEB/wQEAwIHgDAVBgNVHSUEDjAMBgorBgEEAYPoXgIBMAwGA1UdEwEB/wQCMAAwHwYDVR0jBBgwFoAUzlHiBIFOZFsj+OPEz5o+nMHXXMIwCgYIKoZIzj0EAwMDZwAwZAIwMXMdFJ4BetLLVY7ORuE9noqbbAZOZn/aArXyTwFAZfKrPzxF2vPoJNf1+UCdg1XGAjBwX1zd9WGqYkqmL5SFqw1QySjr1zJfpJM9+1rdDwSPLMOPOjKuiXjoU/pUUeG9RwmhY3BhZFkNngAAAAAAAAAAAAAAAAAAAAAAAAAAAAAAAAAAAAAAAAAAAAAAAAAAAAAAAAAAAAAAAAAAAAAAAAAAAAAAAAAAAAAAAAAAAAAAAAAAAAAAAAAAAAAAAAAAAAAAAAAAAAAAAAAAAAAAAAAAAAAAAAAAAAAAAAAAAAAAAAAAAAAAAAAAAAAAAAAAAAAAAAAAAAAAAAAAAAAAAAAAAAAAAAAAAAAAAAAAAAAAAAAAAAAAAAAAAAAAAAAAAAAAAAAAAAAAAAAAAAAAAAAAAAAAAAAAAAAAAAAAAAAAAAAAAAAAAAAAAAAAAAAAAAAAAAAAAAAAAAAAAAAAAAAAAAAAAAAAAAAAAAAAAAAAAAAAAAAAAAAAAAAAAAAAAAAAAAAAAAAAAAAAAAAAAAAAAAAAAAAAAAAAAAAAAAAAAAAAAAAAAAAAAAAAAAAAAAAAAAAAAAAAAAAAAAAAAAAAAAAAAAAAAAAAAAAAAAAAAAAAAAAAAAAAAAAAAAAAAAAAAAAAAAAAAAAAAAAAAAAAAAAAAAAAAAAAAAAAAAAAAAAAAAAAAAAAAAAAAAAAAAAAAAAAAAAAAAAAAAAAAAAAAAAAAAAAAAAAAAAAAAAAAAAAAAAAAAAAAAAAAAAAAAAAAAAAAAAAAAAAAAAAAAAAAAAAAAAAAAAAAAAAAAAAAAAAAAAAAAAAAAAAAAAAAAAAAAAAAAAAAAAAAAAAAAAAAAAAAAAAAAAAAAAAAAAAAAAAAAAAAAAAAAAAAAAAAAAAAAAAAAAAAAAAAAAAAAAAAAAAAAAAAAAAAAAAAAAAAAAAAAAAAAAAAAAAAAAAAAAAAAAAAAAAAAAAAAAAAAAAAAAAAAAAAAAAAAAAAAAAAAAAAAAAAAAAAAAAAAAAAAAAAAAAAAAAAAAAAAAAAAAAAAAAAAAAAAAAAAAAAAAAAAAAAAAAAAAAAAAAAAAAAAAAAAAAAAAAAAAAAAAAAAAAAAAAAAAAAAAAAAAAAAAAAAAAAAAAAAAAAAAAAAAAAAAAAAAAAAAAAAAAAAAAAAAAAAAAAAAAAAAAAAAAAAAAAAAAAAAAAAAAAAAAAAAAAAAAAAAAAAAAAAAAAAAAAAAAAAAAAAAAAAAAAAAAAAAAAAAAAAAAAAAAAAAAAAAAAAAAAAAAAAAAAAAAAAAAAAAAAAAAAAAAAAAAAAAAAAAAAAAAAAAAAAAAAAAAAAAAAAAAAAAAAAAAAAAAAAAAAAAAAAAAAAAAAAAAAAAAAAAAAAAAAAAAAAAAAAAAAAAAAAAAAAAAAAAAAAAAAAAAAAAAAAAAAAAAAAAAAAAAAAAAAAAAAAAAAAAAAAAAAAAAAAAAAAAAAAAAAAAAAAAAAAAAAAAAAAAAAAAAAAAAAAAAAAAAAAAAAAAAAAAAAAAAAAAAAAAAAAAAAAAAAAAAAAAAAAAAAAAAAAAAAAAAAAAAAAAAAAAAAAAAAAAAAAAAAAAAAAAAAAAAAAAAAAAAAAAAAAAAAAAAAAAAAAAAAAAAAAAAAAAAAAAAAAAAAAAAAAAAAAAAAAAAAAAAAAAAAAAAAAAAAAAAAAAAAAAAAAAAAAAAAAAAAAAAAAAAAAAAAAAAAAAAAAAAAAAAAAAAAAAAAAAAAAAAAAAAAAAAAAAAAAAAAAAAAAAAAAAAAAAAAAAAAAAAAAAAAAAAAAAAAAAAAAAAAAAAAAAAAAAAAAAAAAAAAAAAAAAAAAAAAAAAAAAAAAAAAAAAAAAAAAAAAAAAAAAAAAAAAAAAAAAAAAAAAAAAAAAAAAAAAAAAAAAAAAAAAAAAAAAAAAAAAAAAAAAAAAAAAAAAAAAAAAAAAAAAAAAAAAAAAAAAAAAAAAAAAAAAAAAAAAAAAAAAAAAAAAAAAAAAAAAAAAAAAAAAAAAAAAAAAAAAAAAAAAAAAAAAAAAAAAAAAAAAAAAAAAAAAAAAAAAAAAAAAAAAAAAAAAAAAAAAAAAAAAAAAAAAAAAAAAAAAAAAAAAAAAAAAAAAAAAAAAAAAAAAAAAAAAAAAAAAAAAAAAAAAAAAAAAAAAAAAAAAAAAAAAAAAAAAAAAAAAAAAAAAAAAAAAAAAAAAAAAAAAAAAAAAAAAAAAAAAAAAAAAAAAAAAAAAAAAAAAAAAAAAAAAAAAAAAAAAAAAAAAAAAAAAAAAAAAAAAAAAAAAAAAAAAAAAAAAAAAAAAAAAAAAAAAAAAAAAAAAAAAAAAAAAAAAAAAAAAAAAAAAAAAAAAAAAAAAAAAAAAAAAAAAAAAAAAAAAAAAAAAAAAAAAAAAAAAAAAAAAAAAAAAAAAAAAAAAAAAAAAAAAAAAAAAAAAAAAAAAAAAAAAAAAAAAAAAAAAAAAAAAAAAAAAAAAAAAAAAAAAAAAAAAAAAAAAAAAAAAAAAAAAAAAAAAAAAAAAAAAAAAAAAAAAAAAAAAAAAAAAAAAAAAAAAAAAAAAAAAAAAAAAAAAAAAAAAAAAAAAAAAAAAAAAAAAAAAAAAAAAAAAAAAAAAAAAAAAAAAAAAAAAAAAAAAAAAAAAAAAAAAAAAAAAAAAAAAAAAAAAAAAAAAAAAAAAAAAAAAAAAAAAAAAAAAAAAAAAAAAAAAAAAAAAAAAAAAAAAAAAAAAAAAAAAAAAAAAAAAAAAAAAAAAAAAAAAAAAAAAAAAAAAAAAAAAAAAAAAAAAAAAAAAAAAAAAAAAAAAAAAAAAAAAAAAAAAAAAAAAAAAAAAAAAAAAAAAAAAAAAAAAAAAAAAAAAAAAAAAAAAAAAAAAAAAAAAAAAAAAAAAAAAAAAAAAAAAAAAAAAAAAAAAAAAAAAAAAAAAAAAAAAAAAAAAAAAAAAAAAAAAAAAAAAAAAAAAAAAAAAAAAAAAAAAAAAAAAAAAAAAAAAAAAAAAAAAAAAAAAAAAAAAAAAAAAAAAAAAAAAAAAAAAAAAAAAAAAAAAAAAAAAAAAAAAAAAAAAAAAAAAAAAAAAAAAAAAAAAAAAAAAAAAAAAAAAAAAAAAAAAAAAAAAAAAAAAAAAAAAAAAAAAAAAAAAAAAAAAAAAAAAAAAAAAAAAAAAAAAAAAAAAAAAAAAAAAAAAAAAAAAAAAAAAAAAAAAAAAAAAAAAAAAAAAAAAAAAAAAAAAAAAAAAAAAAAAAAAAAAAAAAAAAAAAAAAAAAAAAAAAAAAAAAAAAAAAAAAAAAAAAAAAAAAAAAAAAAAAAAAAAAAAAAAAAAAAAAAAAAAAAAAAAAAAAAAAAAAAAAAAAAAAAAAAAAAAAAAAAAAAAAAAAAAAAAAAAAAAAAAAAAAAAAAAAAAAAAAAAAAAAAAAAAAAAAAAAAAAAAAAAAAAAAAAAAAAAAAAAAAAAAAAAAAAAAAAAAAAAAAAAAAAAAAAAAAAAAAAAAAAAAAAAAAAAAAAAAAAAAAAAAAAAAAAAAAAAAAAAAAAAAAAAAAAAAAAAAAAAAAAAAAAAAAAAAAAAAAAAAAAAAAAAAAAAAAAAAAAAAAAAAAAAAAAAAAAAAAAAAAAAAAAAAAAAAAAAAAAAAAAAAAAAAAAAAAAAAAAAAAAAAAAAAAAAAAAAAAAAAAAAAAAAAAAAAAAAAAAAAAAAAAAAAAAAAAAAAAAAAAAAAAAAAAAAAAAAAAAAAAAAAAAAAAAAAAAAAAAAAAAAAAAAAAAAAAAAAAAAAAAAAAAAAAAAAAAAAAAAAAAAAAAAAAAAAAAAAAAAAAAAAAAAAAAAAAAAAAAAAAAAAAAAAAAAAAAAAAAAAAAAAAAAAAAAAAAAAAAAAAAAAAAAAAAAAAAAAAAAAAAAAAAAAAAAAAAAAAAAAAAAAAAAAAAAAAAAAAAAAAAAAAAAAAAAAAAAAAAAAAAAAAAAAAAAAAAAAAAAAAAAAAAAAAAAAAAAAAAAAAAAAAAAAAAAAAAAAAAAAAAAAAAAAAAAAAAAAAAAAAAAAAAAAAAAAAAAAAAAAAAAAAAAAAAAAAAAAAAAAAAAAAAAAAAAAAAAAAAAAAAAAAAAAAAAAAAAAAAAAAAAAAAAAAAAAAAAAAAAAAAAAAAAAAAAAAAAAAAAAAAAAAAAAAAAAAAAAAAAAAAAAAAAAAAAAAAAAAAAAAAAAAAAAAAAAAAAAAAAAAAAAAAAAAAAAAAAAAAAAAAAAAAAAAAAAAAAAAAAAAAAAAAAAAAAAAAAAAAAAAAAAAAAAAAAAAAAAAAAAAAAAAAAAAAAAAAAAAAAAAAAAAAAAAAAAAAAAAAAAAAAAAAAAAAAAAAAAAAAAAAAAAAAAAAAAAAAAAAAAAAAAAAAAAAAAAAAAAAAAAAAAAAAAAAAAAAAAAAAAAAAAAAAAAAAAAAAAAAAAAAAAAAAAAAAAAAAAAAAAAAAAAAAAAAAAAAAAAAAAAAAAAAAAAAAAAAAAAAAAAAAAAAAAAAAAAAAAAAAAAAAAAAAAAAAAAAAAAAAAAAAAAAAAAAAAAAAAAAAAAAAAAAAAAAAAAAAAAAAAAAAAAAAAAAAAAAAAAAAAAAAAAAAAAAAAAAAAAAAAAAAAAAAAAAAAAAAAAAAAAAAAAAAAAAAAAAAAAAAAAAAAAAAAAAAAAAAAAAAAAAAAAAAAAAAAAAAAAAAAAAAAAAAAAAAAAAAAAAAAAAAAAAAAAAAAAAAAAAAAAAAAAAAAAAAAAAAAAAAAAAAAAAAAAAAAAAAAAAAAAAAAAAAAAPZYQLh4VZkGvZtZ3gGRP3YBYEjUfr77DXUZpP+WHpZ2D1zMZ7YH1pvz2bYvSp4oLSMZa0X/F4xeFoD8pbZPkCQxviI=</c2pa:manifest></metadata>
  <defs>
    <linearGradient id="sky" x1="0" y1="0" x2="0" y2="1">
      <stop offset="0" stop-color="#86bdec"/>
      <stop offset="0.55" stop-color="#c8dfef"/>
      <stop offset="1" stop-color="#f8dcaa"/>
    </linearGradient>
    <linearGradient id="floor" x1="0" y1="0" x2="0" y2="1">
      <stop offset="0" stop-color="#cf9757"/>
      <stop offset="1" stop-color="#b57636"/>
    </linearGradient>
    <linearGradient id="wall" x1="0" y1="0" x2="0" y2="1">
      <stop offset="0" stop-color="#d4b083"/>
      <stop offset="1" stop-color="#e2c194"/>
    </linearGradient>
    <radialGradient id="glow" cx="872" cy="430" r="720" gradientUnits="userSpaceOnUse">
      <stop offset="0" stop-color="#ffe3a0" stop-opacity="0.75"/>
      <stop offset="0.5" stop-color="#ffd58a" stop-opacity="0.22"/>
      <stop offset="1" stop-color="#ffd58a" stop-opacity="0"/>
    </radialGradient>
    <radialGradient id="vig" cx="836" cy="470" r="1050" gradientUnits="userSpaceOnUse">
      <stop offset="0.55" stop-color="#3a1d08" stop-opacity="0"/>
      <stop offset="1" stop-color="#3a1d08" stop-opacity="0.5"/>
    </radialGradient>
    <clipPath id="glass"><rect x="738" y="160" width="290" height="540"/></clipPath>
    <pattern id="books" width="96" height="62" patternUnits="userSpaceOnUse">
      <rect x="2" y="12" width="11" height="50" fill="#a8523d"/>
      <rect x="14" y="4" width="9" height="58" fill="#e0c27a"/>
      <rect x="24" y="18" width="12" height="44" fill="#4f6a55"/>
      <rect x="37" y="8" width="8" height="54" fill="#efe3c8"/>
      <rect x="46" y="22" width="13" height="40" fill="#5e7b93"/>
      <rect x="60" y="6" width="10" height="56" fill="#c9793f"/>
      <rect x="71" y="16" width="9" height="46" fill="#7a4a3a"/>
      <rect x="81" y="10" width="12" height="52" fill="#d8b6a2"/>
    </pattern>
    <g id="leaf"><path d="M0 0C14-14 40-14 56 0C40 14 14 14 0 0Z"/></g>
    <g id="plant">
      <g fill="#6f8a3f">
        <use xlink:href="#leaf" transform="translate(0,-28) rotate(-158) scale(.9)"/>
        <use xlink:href="#leaf" transform="translate(0,-28) rotate(-20) scale(.9)"/>
        <use xlink:href="#leaf" transform="translate(0,-28) rotate(-118) scale(1.1)"/>
      </g>
      <g fill="#8aa04c">
        <use xlink:href="#leaf" transform="translate(0,-28) rotate(-62) scale(1.1)"/>
        <use xlink:href="#leaf" transform="translate(0,-28) rotate(-90) scale(1.3)"/>
      </g>
      <path d="M-24 0L24 0L18 -30L-18 -30Z" fill="#c98d60"/>
      <rect x="-20" y="-33" width="40" height="6" rx="2" fill="#d69d70"/>
    </g>
  </defs>

  <!-- wall & floor -->
  <rect width="1672" height="720" fill="url(#wall)"/>
  <rect y="700" width="1672" height="241" fill="url(#floor)"/>
  <rect y="690" width="1672" height="14" fill="#a06a3c"/>
  <g stroke="#a06a34" stroke-opacity="0.35" stroke-width="2">
    <line x1="0" y1="742" x2="1672" y2="742"/><line x1="0" y1="792" x2="1672" y2="792"/>
    <line x1="0" y1="850" x2="1672" y2="850"/><line x1="0" y1="915" x2="1672" y2="915"/>
    <line x1="210" y1="704" x2="170" y2="742"/><line x1="610" y1="704" x2="590" y2="742"/>
    <line x1="1010" y1="704" x2="1040" y2="742"/><line x1="1420" y1="704" x2="1450" y2="742"/>
    <line x1="120" y1="742" x2="60" y2="792"/><line x1="480" y1="742" x2="450" y2="792"/>
    <line x1="860" y1="742" x2="870" y2="792"/><line x1="1240" y1="742" x2="1290" y2="792"/>
    <line x1="330" y1="792" x2="280" y2="850"/><line x1="720" y1="792" x2="710" y2="850"/>
    <line x1="1120" y1="792" x2="1160" y2="850"/><line x1="560" y1="850" x2="520" y2="915"/>
    <line x1="960" y1="850" x2="990" y2="915"/>
  </g>

  <!-- left: wall art -->
  <rect x="0" y="0" width="70" height="196" fill="#c9b48f"/>
  <rect x="6" y="6" width="58" height="184" fill="#7d93a8"/>
  <path d="M6 190V120L26 90l16 24 14-22 8 14v60z" fill="#4e6a63"/>
  <path d="M6 120L26 90l14 22-12 8z" fill="#e8ecef"/>
  <rect x="105" y="132" width="52" height="104" fill="#e6c9a0"/>
  <path d="M112 226V190l18-22 20 22v36z" fill="#c9793f"/>
  <path d="M208 190h44v96l-22 -12-22 12z" fill="#3f5f8a"/>
  <path d="M218 236l4-12 8 5 8-5 4 12z" fill="#e0913f"/>
  <path d="M230 178v12" stroke="#7a5a3a" stroke-width="3"/>

  <!-- left: tall bookshelf -->
  <rect x="178" y="84" width="210" height="480" fill="#b5885a"/>
  <rect x="192" y="96" width="182" height="456" fill="#8a6440"/>
  <rect x="192" y="199" width="182" height="8" fill="#c69a66"/>
  <rect x="192" y="299" width="182" height="8" fill="#c69a66"/>
  <rect x="192" y="399" width="182" height="8" fill="#c69a66"/>
  <rect x="192" y="497" width="182" height="8" fill="#c69a66"/>
  <rect x="196" y="137" width="172" height="62" fill="url(#books)"/>
  <rect x="196" y="237" width="172" height="62" fill="url(#books)"/>
  <rect x="196" y="337" width="172" height="62" fill="url(#books)"/>
  <rect x="196" y="437" width="172" height="62" fill="url(#books)"/>
  <rect x="200" y="510" width="60" height="40" fill="#e9d7b0"/>
  <use xlink:href="#plant" transform="translate(340,336) scale(.55)"/>

  <!-- left: vine hanging from shelf -->
  <path d="M380 90C420 160 380 250 408 330C420 370 400 400 410 430" fill="none" stroke="#4d6b34" stroke-width="3"/>
  <g fill="#5f8038">
    <use xlink:href="#leaf" transform="translate(386,130) rotate(20) scale(.5)"/>
    <use xlink:href="#leaf" transform="translate(396,180) rotate(160) scale(.5)"/>
    <use xlink:href="#leaf" transform="translate(392,225) rotate(30) scale(.55)"/>
    <use xlink:href="#leaf" transform="translate(402,275) rotate(150) scale(.55)"/>
    <use xlink:href="#leaf" transform="translate(408,325) rotate(30) scale(.55)"/>
    <use xlink:href="#leaf" transform="translate(410,372) rotate(150) scale(.5)"/>
    <use xlink:href="#leaf" transform="translate(408,415) rotate(35) scale(.45)"/>
  </g>

  <!-- left: dark cabinet with flowers -->
  <rect x="0" y="376" width="212" height="230" fill="#5a3f2e"/>
  <path d="M0 376h212l-8 26H0z" fill="#8a7458"/>
  <path d="M30 372h40l-6 -6 -6 6h-22z" fill="#8a7458"/>
  <path d="M34 372c-4-22 0-46 6-56h18c6 10 10 34 6 56z" fill="#3d5f7a"/>
  <g>
    <circle cx="36" cy="290" r="15" fill="#f6efe1"/><circle cx="62" cy="282" r="16" fill="#f6efe1"/>
    <circle cx="82" cy="298" r="13" fill="#f0e2c0"/><circle cx="50" cy="268" r="13" fill="#f6efe1"/>
    <circle cx="36" cy="290" r="4" fill="#e8b84a"/><circle cx="62" cy="282" r="4" fill="#e8b84a"/><circle cx="50" cy="268" r="3.5" fill="#e8b84a"/>
  </g>
  <path d="M50 300c-10 20-14 34-14 60M62 300c6 20 6 36 6 60" stroke="#5f8038" stroke-width="3" fill="none"/>

  <!-- left: low cabinets -->
  <rect x="0" y="586" width="306" height="16" fill="#dcc298"/>
  <rect x="0" y="602" width="306" height="226" fill="#c9a678"/>
  <rect x="284" y="548" width="188" height="14" fill="#c99a62"/>
  <rect x="284" y="562" width="188" height="168" fill="#c49a68"/>
  <g fill="#d6b78a" stroke="#a88356" stroke-width="2">
    <rect x="14" y="616" width="130" height="86"/><rect x="160" y="616" width="134" height="86"/>
    <rect x="14" y="716" width="130" height="90"/><rect x="160" y="716" width="134" height="90"/>
    <rect x="298" y="572" width="80" height="72"/><rect x="386" y="572" width="76" height="72"/>
    <rect x="298" y="652" width="164" height="70"/>
  </g>
  <g fill="#e6c26a">
    <circle cx="80" cy="640" r="4"/><circle cx="226" cy="640" r="4"/><circle cx="80" cy="742" r="4"/><circle cx="226" cy="742" r="4"/>
    <circle cx="338" cy="600" r="3.5"/><circle cx="424" cy="600" r="3.5"/>
  </g>
  <g>
    <rect x="290" y="504" width="56" height="44" fill="#a9573f"/><rect x="292" y="470" width="50" height="34" fill="#e6d4a8"/>
    <rect x="418" y="486" width="44" height="62" fill="#5e7b93"/>
    <rect x="352" y="490" width="60" height="58" rx="6" fill="#c9793f"/>
  </g>
  <use xlink:href="#plant" transform="translate(240,372) scale(.9)"/>
  <use xlink:href="#plant" transform="translate(500,660) scale(.75)"/>

  <!-- window: sky, clouds, city, trees -->
  <rect x="728" y="150" width="310" height="560" fill="#efe1c4"/>
  <rect x="738" y="160" width="290" height="540" fill="url(#sky)"/>
  <g clip-path="url(#glass)">
    <g fill="#ffffff" opacity="0.9">
      <ellipse cx="960" cy="230" rx="58" ry="16"/><ellipse cx="930" cy="216" rx="34" ry="14"/><ellipse cx="994" cy="222" rx="30" ry="11"/>
      <ellipse cx="800" cy="340" rx="60" ry="14"/><ellipse cx="830" cy="326" rx="34" ry="12"/>
      <ellipse cx="970" cy="420" rx="66" ry="15"/><ellipse cx="938" cy="408" rx="32" ry="12"/>
      <ellipse cx="880" cy="500" rx="80" ry="14" opacity="0.8"/>
    </g>
    <g fill="#a3b4c6">
      <rect x="800" y="612" width="22" height="90"/><rect x="826" y="596" width="30" height="106"/>
      <rect x="885" y="560" width="38" height="142"/><rect x="928" y="600" width="26" height="102"/>
      <rect x="960" y="622" width="34" height="80"/><rect x="760" y="640" width="30" height="62"/>
    </g>
    <g fill="#8d9fb4" opacity="0.8">
      <rect x="895" y="548" width="18" height="14"/><rect x="838" y="586" width="14" height="12"/>
    </g>
    <path d="M738 704V610c40 6 80 30 120 60l70 34z" fill="#8aa06a" opacity="0.65"/>
    <g fill="#c9a63a"><circle cx="748" cy="240" r="44"/><circle cx="770" cy="300" r="40"/><circle cx="750" cy="360" r="42"/><circle cx="1020" cy="330" r="44"/><circle cx="1004" cy="270" r="38"/></g>
    <g fill="#a3902f"><circle cx="738" cy="290" r="34"/><circle cx="760" cy="200" r="34"/><circle cx="1026" cy="400" r="38"/></g>
    <g fill="#7d8a35"><circle cx="742" cy="330" r="24"/><circle cx="1014" cy="300" r="22"/><circle cx="756" cy="420" r="22"/></g>
  </g>
  <rect x="868" y="160" width="8" height="540" fill="#efe1c4"/>
  <rect x="738" y="196" width="290" height="8" fill="#efe1c4"/>
  <rect x="716" y="700" width="334" height="12" fill="#e6d3ae"/>

  <!-- curtains -->
  <rect x="512" y="104" width="706" height="10" rx="5" fill="#8a5a30"/>
  <circle cx="512" cy="109" r="9" fill="#a06a3c"/><circle cx="1218" cy="109" r="9" fill="#a06a3c"/>
  <rect x="520" y="116" width="222" height="590" fill="#f7ebd4"/>
  <rect x="1028" y="116" width="178" height="590" fill="#f7ebd4"/>
  <g fill="#ffffff" opacity="0.5">
    <rect x="540" y="116" width="16" height="590"/><rect x="584" y="116" width="22" height="590"/><rect x="636" y="116" width="16" height="590"/><rect x="686" y="116" width="22" height="590"/>
    <rect x="1050" y="116" width="18" height="590"/><rect x="1100" y="116" width="24" height="590"/><rect x="1156" y="116" width="18" height="590"/>
  </g>
  <g fill="#c79a5c" opacity="0.2">
    <rect x="562" y="116" width="16" height="590"/><rect x="610" y="116" width="20" height="590"/><rect x="662" y="116" width="16" height="590"/><rect x="714" y="116" width="26" height="590"/>
    <rect x="1074" y="116" width="20" height="590"/><rect x="1130" y="116" width="20" height="590"/><rect x="1182" y="116" width="22" height="590"/>
  </g>

  <!-- chandelier -->
  <path d="M930 0v52" stroke="#6b4a2c" stroke-width="3"/>
  <path d="M880 56h100" stroke="#6b4a2c" stroke-width="4" stroke-linecap="round"/>
  <g fill="#f6ead0" stroke="#d9c49a" stroke-width="2">
    <path d="M868 64h26l-4 44h-18z"/><path d="M917 64h26l-4 48h-18z"/><path d="M966 64h26l-4 44h-18z"/>
  </g>
  <g fill="#fff3b8"><ellipse cx="881" cy="110" rx="9" ry="5"/><ellipse cx="930" cy="114" rx="9" ry="5"/><ellipse cx="979" cy="110" rx="9" ry="5"/></g>

  <!-- right: shelf unit, calendar, photos, fridge -->
  <rect x="1346" y="46" width="232" height="304" fill="#b98a5a"/>
  <rect x="1358" y="58" width="208" height="280" fill="#8a6440"/>
  <rect x="1358" y="190" width="208" height="9" fill="#c69a66"/>
  <rect x="1362" y="128" width="200" height="62" fill="url(#books)"/>
  <rect x="1362" y="260" width="200" height="62" fill="url(#books)"/>
  <rect x="1362" y="66" width="80" height="54" fill="#e6d4a8"/>
  <use xlink:href="#plant" transform="translate(1500,326) scale(.5)"/>
  <rect x="1225" y="213" width="86" height="138" fill="#f7f0e0" stroke="#cbb89a"/>
  <text x="1268" y="256" font-family="Georgia, serif" font-size="13" text-anchor="middle" fill="#5a4636">Good</text>
  <text x="1268" y="272" font-family="Georgia, serif" font-size="13" text-anchor="middle" fill="#5a4636">Code</text>
  <text x="1268" y="288" font-family="Georgia, serif" font-size="13" text-anchor="middle" fill="#5a4636">Better</text>
  <text x="1268" y="304" font-family="Georgia, serif" font-size="13" text-anchor="middle" fill="#5a4636">Days</text>
  <g fill="#cbb89a"><rect x="1234" y="320" width="68" height="2"/><rect x="1234" y="328" width="68" height="2"/><rect x="1234" y="336" width="68" height="2"/></g>
  <g>
    <rect x="1234" y="378" width="32" height="36" fill="#8a6a55"/><rect x="1276" y="384" width="30" height="34" fill="#7d9bb5"/>
    <rect x="1416" y="400" width="18" height="28" fill="#b98a6a"/><rect x="1440" y="368" width="24" height="30" fill="#8aa0b0"/>
    <rect x="1444" y="408" width="26" height="42" fill="#a9856a"/><rect x="1376" y="362" width="20" height="26" fill="#6f8a70"/>
  </g>
  <path d="M1380 160C1350 230 1400 300 1378 380C1370 410 1390 430 1384 460" fill="none" stroke="#4d6b34" stroke-width="3"/>
  <g fill="#5f8038">
    <use xlink:href="#leaf" transform="translate(1372,200) rotate(160) scale(.55)"/>
    <use xlink:href="#leaf" transform="translate(1388,260) rotate(20) scale(.55)"/>
    <use xlink:href="#leaf" transform="translate(1374,320) rotate(160) scale(.55)"/>
    <use xlink:href="#leaf" transform="translate(1382,380) rotate(25) scale(.5)"/>
    <use xlink:href="#leaf" transform="translate(1384,430) rotate(155) scale(.45)"/>
  </g>
  <rect x="1226" y="472" width="150" height="150" rx="5" fill="#b4b7bb"/>
  <rect x="1236" y="484" width="130" height="90" fill="#c4c7ca"/>
  <rect x="1246" y="494" width="44" height="56" fill="#e9e2d0"/>
  <rect x="1226" y="620" width="150" height="72" fill="#a9acb0"/>
  <use xlink:href="#plant" transform="translate(1268,470) scale(.55)"/>

  <!-- floor light -->
  <polygon points="700,712 1052,712 1180,941 520,941" fill="#ffe3a1" opacity="0.26"/>
  <polygon points="760,712 800,712 760,941 660,941" fill="#fff0c0" opacity="0.18"/>
  <polygon points="950,712 1000,712 1060,941 950,941" fill="#fff0c0" opacity="0.18"/>

  <!-- desk -->
  <rect x="592" y="566" width="316" height="150" fill="#5a3a1d" opacity="0.4"/>
  <rect x="514" y="542" width="532" height="14" rx="2" fill="#cc8d4c"/>
  <rect x="514" y="556" width="532" height="7" fill="#a86f38"/>
  <rect x="516" y="556" width="76" height="166" fill="#c48852" stroke="#a06a35" stroke-width="2"/>
  <rect x="908" y="556" width="114" height="162" fill="#dbcfb8" stroke="#b8a888" stroke-width="2"/>
  <g fill="#e8dfcd" stroke="#b8a888" stroke-width="2">
    <rect x="916" y="564" width="98" height="46"/><rect x="916" y="616" width="98" height="46"/><rect x="916" y="668" width="98" height="44"/>
  </g>
  <g fill="#8a8272"><rect x="952" y="584" width="26" height="4"/><rect x="952" y="636" width="26" height="4"/><rect x="952" y="688" width="26" height="4"/></g>
  <rect x="1020" y="560" width="14" height="164" fill="#b9b4a8"/>
  <rect x="594" y="632" width="46" height="88" fill="#2b2b2f"/>
  <rect x="826" y="634" width="82" height="86" fill="#4a4340"/>
  <rect x="566" y="446" width="36" height="96" fill="#e7e0d0" stroke="#c9bfa8" stroke-width="2"/>
  <g fill="#c9bfa8"><rect x="570" y="462" width="28" height="3"/><rect x="570" y="482" width="28" height="3"/><rect x="570" y="502" width="28" height="3"/></g>
  <use xlink:href="#plant" transform="translate(584,446) scale(.55)"/>

  <!-- monitor -->
  <rect x="688" y="413" width="162" height="106" rx="3" fill="#18181c"/>
  <rect x="692" y="417" width="154" height="98" fill="#1d2431"/>
  <g>
    <rect x="700" y="426" width="46" height="3" fill="#e8b96a"/><rect x="708" y="434" width="70" height="3" fill="#8fb6e0"/>
    <rect x="708" y="442" width="52" height="3" fill="#b4d69a"/><rect x="716" y="450" width="88" height="3" fill="#8fb6e0"/>
    <rect x="716" y="458" width="40" height="3" fill="#e0a0a8"/><rect x="708" y="466" width="76" height="3" fill="#b4d69a"/>
    <rect x="700" y="474" width="34" height="3" fill="#e8b96a"/><rect x="708" y="482" width="98" height="3" fill="#8fb6e0"/>
    <rect x="716" y="490" width="60" height="3" fill="#b4d69a"/><rect x="700" y="498" width="44" height="3" fill="#e0a0a8"/>
    <rect x="800" y="426" width="36" height="3" fill="#b4d69a"/><rect x="806" y="442" width="30" height="3" fill="#e8b96a"/>
  </g>
  <rect x="760" y="519" width="18" height="14" fill="#2a2a2e"/>
  <rect x="738" y="531" width="62" height="6" rx="3" fill="#2a2a2e"/>
  <rect x="726" y="536" width="106" height="7" rx="2" fill="#3c3a3c"/>
  <ellipse cx="850" cy="540" rx="10" ry="4" fill="#3c3a3c"/>

  <!-- laptop -->
  <rect x="864" y="468" width="92" height="64" rx="3" fill="#2b2f36"/>
  <rect x="869" y="473" width="82" height="54" fill="#7fb0e0"/>
  <path d="M869 527V505l24-12 20 10 38-8v32z" fill="#5b7a6e"/>
  <path d="M890 527l14-24 6 0 10 24z" fill="#e9dcc0"/>
  <path d="M856 532h108l6 10H850z" fill="#cfcfd4"/>

  <!-- desk lamp -->
  <ellipse cx="1004" cy="541" rx="22" ry="5" fill="#4a3a2e"/>
  <path d="M1004 540L984 470L952 408" fill="none" stroke="#5a3e2a" stroke-width="5" stroke-linecap="round" stroke-linejoin="round"/>
  <path d="M926 404L950 380L982 398L958 418Z" fill="#3f3128"/>
  <ellipse cx="948" cy="418" rx="14" ry="6" fill="#fff0a8" opacity="0.8"/>
  <use xlink:href="#plant" transform="translate(985,490) scale(.62)"/>

  <!-- chair + hoodie -->
  <rect x="722" y="640" width="12" height="52" fill="#2a2a2e"/>
  <path d="M728 690L654 730M728 690L806 730M728 690L730 742" stroke="#2a2a2e" stroke-width="9" stroke-linecap="round"/>
  <circle cx="654" cy="734" r="8" fill="#1e1e22"/><circle cx="806" cy="734" r="8" fill="#1e1e22"/><circle cx="730" cy="744" r="8" fill="#1e1e22"/>
  <ellipse cx="732" cy="626" rx="92" ry="17" fill="#d0ccc4"/>
  <ellipse cx="732" cy="634" rx="92" ry="10" fill="#8f8b84" opacity="0.5"/>
  <rect x="604" y="462" width="118" height="194" rx="34" fill="#b9b5ad"/>
  <path d="M614 480c0-10 8-18 20-18h58c12 0 20 8 20 18v150c0 10-10 16-24 16h-50c-14 0-24-6-24-16z" fill="#4c3f35"/>
  <path d="M640 470q34 20 62 0v22q-30 18-62 0z" fill="#3e332b"/>
  <path d="M666 520c-14 14-14 34 0 52 14-18 14-38 0-52z" fill="#b59a6a" opacity="0.8"/>
  <path d="M666 530v44M666 548l-8-8M666 558l8-8" stroke="#4c3f35" stroke-width="2"/>

  <!-- bed -->
  <rect x="1150" y="660" width="522" height="200" fill="#a56d40"/>
  <polygon points="1136,668 1400,606 1672,596 1672,700 1160,730" fill="#f4efe6"/>
  <polygon points="1136,668 1300,632 1330,690 1160,730" fill="#e6ddd0"/>
  <g transform="rotate(-8 1340 590)"><rect x="1284" y="562" width="112" height="50" rx="22" fill="#e6a93e"/></g>
  <rect x="1394" y="538" width="118" height="64" rx="24" fill="#eae4d8"/>
  <polygon points="1230,668 1672,646 1672,840 1214,868 1214,760" fill="#5f6a4b"/>
  <polygon points="1230,668 1672,646 1672,676 1240,700" fill="#7b845d"/>
  <g stroke="#4c563a" stroke-width="3" opacity="0.6" fill="none"><path d="M1260 730c120-10 260-14 412-14"/><path d="M1250 790c140-10 280-14 422-16"/></g>
  <rect x="1300" y="768" width="200" height="98" rx="3" fill="#7a4a2e"/>
  <rect x="1310" y="778" width="180" height="76" fill="#8a5a3a"/>
  <rect x="1500" y="700" width="172" height="170" fill="#a26c40"/>
  <g><rect x="1510" y="676" width="120" height="24" fill="#e6d8b8"/><rect x="1514" y="656" width="104" height="20" fill="#a9573f"/></g>
  <rect x="1380" y="720" width="30" height="66" rx="6" fill="#ece1cb"/><rect x="1430" y="716" width="30" height="70" rx="6" fill="#e6d4b0"/>
  <path d="M1420 834c0-30 20-40 50-40h110c30 0 50 20 52 60v87h-212z" fill="#2a2a2c"/>

  <!-- rug -->
  <polygon points="428,872 560,750 1112,750 1190,874" fill="#f4ead8"/>
  <polygon points="450,862 574,762 1098,762 1170,864" fill="none" stroke="#e6d7bc" stroke-width="4"/>
  <polygon points="640,762 790,762 700,864 540,864" fill="#ffeab2" opacity="0.5"/>
  <polygon points="850,762 960,762 1010,864 900,864" fill="#ffeab2" opacity="0.5"/>
  <polygon points="1010,762 1060,762 1120,864 1060,864" fill="#ffeab2" opacity="0.4"/>
  <path d="M428 872h762" stroke="#e7d8b8" stroke-width="8" stroke-dasharray="2 5"/>

  <!-- floor bits: backpack, books, cat -->
  <g>
    <rect x="316" y="682" width="96" height="124" rx="34" fill="#59574a"/>
    <rect x="332" y="738" width="64" height="52" rx="14" fill="#4a483c"/>
    <path d="M328 700c10 14 12 28 8 48M400 700c-10 14-12 28-8 48" stroke="#3a382e" stroke-width="5" fill="none"/>
  </g>
  <g><rect x="414" y="750" width="90" height="12" fill="#e9dcc0"/><rect x="420" y="762" width="80" height="12" fill="#a9573f"/><rect x="410" y="774" width="96" height="10" fill="#5e7b93"/></g>
  <g>
    <ellipse cx="292" cy="866" rx="92" ry="26" fill="#26232a"/>
    <ellipse cx="340" cy="874" rx="34" ry="14" fill="#f2efe8"/>
    <ellipse cx="232" cy="868" rx="28" ry="22" fill="#26232a"/>
    <path d="M212 852l6-16 12 12zM244 848l10-14 4 18z" fill="#26232a"/>
    <path d="M218 872q14 10 28 0" stroke="#f2efe8" stroke-width="7" fill="none"/>
    <path d="M222 866q5 3 10 0M240 866q5 3 10 0" stroke="#111" stroke-width="2" fill="none"/>
    <path d="M378 868c20 4 32 14 30 26" stroke="#26232a" stroke-width="10" stroke-linecap="round" fill="none"/>
  </g>

  <!-- foreground leaves -->
  <g fill="#3d5230" opacity="0.92">
    <path d="M0 941C20 860 90 800 190 800C140 830 96 880 84 941z"/>
    <path d="M0 941C10 890 30 850 70 830C60 870 56 905 60 941z" fill="#4c6638"/>
    <path d="M60 941C90 900 150 880 220 892C160 900 120 920 110 941z"/>
    <path d="M1672 941C1650 880 1600 830 1540 820C1580 850 1600 890 1600 941z"/>
    <path d="M1672 720C1640 660 1600 600 1620 500C1650 560 1660 620 1672 640z"/>
    <path d="M1672 560C1650 520 1640 470 1652 420C1668 450 1672 490 1672 520z" fill="#4c6638"/>
  </g>

  <!-- light & vignette -->
  <rect width="1672" height="941" fill="url(#glow)"/>
  <polygon points="1030,200 1672,520 1672,700 1030,700" fill="#fff1c0" opacity="0.10"/>
  <polygon points="738,200 0,470 0,700 738,700" fill="#fff1c0" opacity="0.08"/>
  <rect width="1672" height="941" fill="url(#vig)"/>
</svg>
